<?xml version="1.0" encoding="UTF-8"?>
<svg xmlns="http://www.w3.org/2000/svg" 
     viewBox="0 0 435 460" 
     width="64" height="68">
  <!-- RiskSureAI Icon Only -->
  
  <!-- Blue elements -->
  <g transform="translate(0.000000,460.000000) scale(0.100000,-0.100000)" fill="#284056" stroke="none">

<path d="M2170 4463 c-222 -79 -922 -334 -1070 -388 -69 -26 -186 -68 -260
-95 -74 -27 -171 -62 -215 -78 -44 -16 -143 -53 -220 -81 -77 -28 -196 -72
-265 -99 l-125 -48 -6 -70 c-11 -121 -10 -1775 1 -1932 23 -312 78 -559 185
-832 46 -115 82 -190 94 -190 8 0 41 38 266 308 28 33 111 131 185 218 74 86
176 206 225 264 50 59 187 221 305 359 l215 253 5 296 5 295 415 154 c303 113
423 153 445 150 46 -7 345 -120 345 -130 0 -5 -98 -111 -218 -235 -266 -276
-305 -319 -300 -331 4 -11 317 -345 327 -349 4 -1 52 44 107 100 191 197 780
815 951 999 l34 36 -128 45 c-70 25 -353 128 -627 229 l-500 182 -100 -36
c-56 -19 -225 -81 -376 -137 -151 -55 -405 -148 -563 -205 -158 -58 -297 -109
-307 -115 -19 -10 -20 -24 -20 -386 0 -436 18 -367 -145 -554 -55 -63 -140
-162 -190 -220 -49 -58 -98 -114 -108 -124 -16 -19 -17 17 -15 793 l3 814 135
49 c74 27 169 62 210 78 41 16 158 59 260 95 102 37 313 114 470 172 157 58
326 120 375 138 50 18 152 56 228 84 l138 51 207 -74 c306 -111 503 -182 632
-231 63 -24 178 -67 255 -95 77 -28 205 -75 285 -104 80 -30 163 -59 185 -66
l39 -13 46 51 c25 28 107 118 183 201 l138 151 -28 11 c-74 29 -697 257 -748
274 -22 7 -146 52 -275 100 -626 231 -893 325 -917 324 -10 0 -88 -25 -173
-56z"/>
<path d="M4280 3184 c-115 -138 -255 -307 -375 -454 -44 -54 -146 -177 -227
-274 -82 -97 -148 -180 -148 -185 0 -6 -6 -14 -14 -18 -23 -13 -246 -284 -246
-299 0 -8 -7 -14 -15 -14 -8 0 -15 -4 -15 -9 0 -5 -7 -16 -15 -24 -8 -9 -62
-73 -120 -144 -58 -70 -111 -135 -118 -143 -53 -59 -177 -210 -177 -214 0 -3
-10 -16 -22 -29 -45 -46 -78 -87 -78 -96 0 -6 -8 -16 -17 -23 -21 -15 -118
-129 -118 -138 0 -15 -74 -70 -86 -64 -8 3 -43 41 -79 84 -36 43 -70 79 -75
79 -6 1 -16 13 -22 29 -11 23 -83 107 -170 199 -13 13 -23 28 -23 33 0 5 -14
18 -31 30 -16 12 -28 25 -25 28 3 3 -15 28 -42 57 -42 45 -135 156 -189 224
l-20 24 -94 -108 c-52 -60 -127 -145 -166 -189 -40 -44 -73 -84 -73 -88 0 -7
91 -117 385 -464 39 -45 115 -135 170 -201 113 -135 356 -414 423 -487 l45
-48 31 33 c17 19 49 57 71 84 22 28 102 125 177 217 76 91 138 170 138 175 0
4 9 14 20 21 11 7 20 19 20 27 0 8 4 15 9 15 5 0 35 33 67 73 32 39 74 90 94
113 68 79 152 183 151 189 -1 3 15 21 34 41 46 46 269 314 286 344 8 13 30 41
49 62 19 21 53 59 75 84 22 25 49 55 60 67 43 46 105 125 105 133 0 5 9 15 20
22 11 7 20 17 20 22 0 6 19 30 43 54 51 52 67 72 67 85 0 6 6 14 14 18 8 4 33
33 57 63 23 30 46 56 49 58 4 1 34 37 66 78 32 42 72 90 87 107 15 17 30 41
33 52 2 11 3 188 2 394 l-3 373 -65 -78z"/>
<path d="M4285 1588 c-153 -160 -143 -144 -164 -250 -35 -167 -115 -382 -214
-573 -50 -96 -205 -331 -239 -363 l-25 -23 -123 132 -124 131 -95 -99 c-144
-148 -237 -247 -245 -261 -5 -8 26 -49 86 -115 51 -56 105 -117 120 -135 l27
-32 353 0 353 0 61 78 c67 84 199 280 258 380 l36 63 -2 565 -3 565 -60 -63z"/>
<path d="M1153 1072 c-39 -42 -93 -105 -121 -139 l-52 -62 -2 -201 -3 -201
-75 100 c-41 56 -77 101 -82 101 -4 0 -33 -31 -65 -68 -32 -38 -104 -121 -160
-185 -57 -63 -103 -121 -103 -128 0 -13 91 -146 159 -231 l46 -58 267 0 268 0
73 77 c41 43 99 106 130 140 l57 63 0 283 0 284 -53 59 c-29 32 -85 98 -126
147 -40 48 -77 89 -81 92 -4 3 -39 -30 -77 -73z"/>
<path d="M1863 134 c-59 -63 -109 -119 -111 -125 -2 -5 86 -9 223 -9 l227 0
-29 34 c-100 120 -187 216 -194 216 -4 0 -56 -52 -116 -116z"/>

  </g>
  
  <!-- Gold elements -->
  <g transform="translate(0.000000,460.000000) scale(0.100000,-0.100000)" fill="#d4a853" stroke="none">

<path d="M4020 2931 c0 -5 -40 -50 -90 -101 -49 -51 -90 -99 -90 -107 0 -8 -4
-11 -10 -8 -5 3 -12 -6 -16 -20 -3 -13 -10 -23 -14 -20 -8 5 -187 -175 -335
-335 -43 -47 -127 -135 -187 -196 -59 -61 -105 -114 -101 -117 3 -4 1 -7 -6
-7 -6 0 -28 -17 -49 -39 -20 -21 -73 -76 -117 -122 -44 -46 -168 -176 -275
-287 -107 -112 -196 -208 -198 -213 -12 -32 -39 -6 -466 429 -81 84 -152 152
-157 152 -17 0 -68 -65 -69 -86 0 -11 12 -35 28 -54 15 -18 44 -54 64 -79 38
-47 91 -109 119 -140 8 -9 31 -38 51 -64 19 -25 61 -70 92 -98 31 -29 56 -58
56 -65 0 -7 3 -14 8 -16 6 -3 21 -20 85 -101 12 -15 41 -46 64 -69 24 -22 40
-44 38 -48 -3 -5 9 -17 27 -28 l32 -21 38 42 c21 23 47 51 58 63 11 12 20 24
20 28 0 4 16 22 35 39 19 17 35 36 35 43 0 7 10 20 22 28 12 9 19 16 15 16 -9
0 4 17 63 79 61 64 90 100 90 109 0 5 27 36 60 70 33 34 60 67 60 72 0 6 5 10
10 10 6 0 10 7 10 15 0 8 3 14 8 12 4 -1 8 2 9 6 1 5 11 17 22 26 12 10 21 23
21 29 0 6 9 16 20 22 11 6 20 16 20 23 0 7 9 18 20 25 12 7 18 17 15 22 -3 6
-1 10 4 10 6 0 38 34 71 76 33 42 66 82 73 90 6 7 26 30 42 50 17 20 41 47 54
60 13 13 20 24 16 24 -4 0 11 20 34 45 22 24 41 48 41 53 0 4 23 32 51 62 28
30 66 71 85 91 19 21 34 40 34 44 0 4 14 21 30 37 17 15 30 32 30 36 0 4 23
36 50 72 61 80 61 79 96 112 16 15 43 45 59 68 17 23 37 48 47 57 9 9 14 22
11 30 -4 9 0 11 11 7 9 -3 16 -1 16 6 0 6 7 18 15 26 17 18 20 34 5 34 -5 0
-10 -4 -10 -9z"/>
<path d="M4328 2438 c-2 -13 -9 -22 -16 -20 -6 1 -12 -5 -12 -13 0 -8 -11 -22
-25 -31 -14 -9 -23 -20 -20 -24 3 -5 -8 -18 -25 -30 -16 -12 -30 -26 -30 -32
0 -5 -34 -49 -75 -96 -130 -150 -152 -176 -196 -232 -23 -30 -47 -58 -53 -62
-7 -5 -7 -8 -1 -8 5 0 -1 -11 -15 -24 -36 -33 -90 -94 -90 -101 0 -3 -13 -20
-29 -38 -27 -29 -124 -141 -154 -177 -11 -13 -37 -48 -82 -108 -5 -8 -20 -24
-32 -37 -13 -12 -23 -25 -23 -29 0 -4 -17 -24 -37 -45 -21 -21 -56 -60 -78
-86 -22 -26 -47 -54 -55 -63 -8 -8 -15 -21 -16 -29 -2 -8 -22 -34 -46 -57 -24
-23 -56 -59 -72 -81 -17 -22 -36 -44 -43 -48 -7 -4 -13 -13 -13 -19 0 -6 -8
-20 -17 -31 -13 -15 -14 -18 -3 -12 13 8 13 6 1 -8 -7 -9 -18 -14 -24 -10 -6
4 -8 0 -5 -9 4 -9 -3 -21 -15 -29 -33 -21 -98 -91 -91 -98 14 -14 31 -3 66 39
45 55 66 77 104 112 34 31 118 118 230 238 65 71 274 293 374 400 138 147 450
476 572 605 l68 70 0 123 c0 68 -4 122 -9 122 -5 0 -11 -10 -13 -22z"/>
<path d="M2871 671 c-26 -36 -27 -47 -3 -23 33 34 45 52 34 52 -6 0 -20 -13
-31 -29z"/>

  </g>
</svg>