<?xml version="1.0" encoding="UTF-8"?>
<svg xmlns="http://www.w3.org/2000/svg" 
     viewBox="0 0 2000 1090" 
     width="400" height="218">
  <!-- RiskSureAI Logo -->
  
  <!-- Blue elements -->
  <g transform="translate(0.000000,1090.000000) scale(0.100000,-0.100000)" fill="#284056" stroke="none">

<path d="M3120 8263 c-222 -79 -922 -334 -1070 -388 -69 -26 -186 -68 -260
-95 -74 -27 -171 -62 -215 -78 -44 -16 -143 -53 -220 -81 -77 -28 -196 -72
-265 -99 l-125 -48 -6 -70 c-11 -121 -10 -1775 1 -1932 23 -312 78 -559 185
-832 46 -115 82 -190 94 -190 8 0 41 38 266 308 28 33 111 131 185 218 74 86
176 206 225 264 50 59 187 221 305 359 l215 253 5 296 5 295 415 154 c303 113
423 153 445 150 46 -7 345 -120 345 -130 0 -5 -98 -111 -218 -235 -266 -276
-305 -319 -300 -331 4 -11 317 -345 327 -349 4 -1 52 44 107 100 191 197 780
815 951 999 l34 36 -128 45 c-70 25 -353 128 -627 229 l-500 182 -100 -36
c-56 -19 -225 -81 -376 -137 -151 -55 -405 -148 -563 -205 -158 -58 -297 -109
-307 -115 -19 -10 -20 -24 -20 -386 0 -436 18 -367 -145 -554 -55 -63 -140
-162 -190 -220 -49 -58 -98 -114 -108 -124 -16 -19 -17 17 -15 793 l3 814 135
49 c74 27 169 62 210 78 41 16 158 59 260 95 102 37 313 114 470 172 157 58
326 120 375 138 50 18 152 56 228 84 l138 51 207 -74 c306 -111 503 -182 632
-231 63 -24 178 -67 255 -95 77 -28 205 -75 285 -104 80 -30 163 -59 185 -66
l39 -13 46 51 c25 28 107 118 183 201 l138 151 -28 11 c-74 29 -697 257 -748
274 -22 7 -146 52 -275 100 -626 231 -893 325 -917 324 -10 0 -88 -25 -173
-56z"/>
<path d="M5543 7357 c-105 -122 -454 -541 -688 -827 -44 -54 -146 -177 -227
-274 -82 -97 -148 -180 -148 -185 0 -6 -6 -14 -14 -18 -23 -13 -246 -284 -246
-299 0 -8 -7 -14 -15 -14 -8 0 -15 -4 -15 -9 0 -5 -7 -16 -15 -24 -8 -9 -62
-73 -120 -144 -58 -70 -111 -135 -118 -143 -53 -59 -177 -210 -177 -214 0 -3
-10 -16 -22 -29 -45 -46 -78 -87 -78 -96 0 -6 -8 -16 -17 -23 -21 -15 -118
-129 -118 -138 0 -15 -74 -70 -86 -64 -8 3 -43 41 -79 84 -36 43 -70 79 -75
79 -6 1 -16 13 -22 29 -11 23 -83 107 -170 199 -13 13 -23 28 -23 33 0 5 -14
18 -31 30 -16 12 -28 25 -25 28 3 3 -15 28 -42 57 -42 45 -135 156 -189 224
l-20 24 -94 -108 c-52 -60 -127 -145 -166 -189 -40 -44 -73 -84 -73 -88 0 -7
91 -117 385 -464 39 -45 115 -135 170 -201 113 -135 356 -414 423 -487 l45
-48 31 33 c17 19 49 57 71 84 22 28 102 125 177 217 76 91 138 170 138 175 0
4 9 14 20 21 11 7 20 19 20 27 0 8 4 15 9 15 5 0 35 33 67 73 32 39 74 90 94
113 69 80 155 187 152 191 -1 2 14 19 33 39 46 46 269 314 286 344 8 13 30 41
49 62 19 21 53 59 75 84 22 25 49 55 60 67 43 46 105 125 105 133 0 5 9 15 20
22 11 7 20 17 20 22 0 6 19 30 43 54 51 52 67 72 67 85 0 6 6 14 14 18 8 4 33
33 57 63 24 30 48 60 55 65 7 6 35 39 64 75 97 123 105 133 143 174 20 22 37
45 37 49 0 5 35 47 78 95 42 48 88 102 101 120 13 19 33 44 45 56 59 64 56 38
56 437 0 203 -4 370 -9 373 -5 3 -44 -36 -88 -87z"/>
<path d="M8170 6295 l0 -155 168 0 167 0 -3 155 -3 155 -164 0 -165 0 0 -155z"/>
<path d="M10140 6057 c0 -217 3 -664 7 -995 l6 -602 149 0 148 0 0 190 0 189
121 146 c67 80 125 143 130 140 5 -3 24 -34 43 -68 18 -34 70 -127 113 -207
44 -80 95 -172 113 -205 18 -33 48 -88 67 -122 l35 -63 169 0 170 0 -24 43
c-14 23 -74 130 -135 237 -60 107 -164 291 -231 409 l-121 214 32 42 c18 23
121 146 228 274 107 127 197 236 198 241 2 6 -63 10 -171 10 l-176 0 -114
-137 c-62 -76 -184 -226 -271 -333 -87 -107 -162 -196 -167 -198 -5 -2 -9 250
-9 592 l0 596 -155 0 -155 0 0 -393z"/>
<path d="M11820 6376 c-143 -41 -231 -127 -266 -261 -18 -68 -18 -390 0 -466
26 -112 91 -190 201 -240 33 -15 206 -63 384 -108 178 -45 343 -90 367 -100
72 -32 79 -52 79 -231 0 -167 -7 -194 -56 -220 -13 -8 -118 -12 -310 -12 -251
0 -292 2 -314 16 -46 30 -55 56 -62 184 l-6 122 -154 0 -155 0 4 -167 c3 -147
7 -174 26 -216 30 -66 85 -131 137 -162 91 -53 130 -57 558 -53 l392 3 68 33
c82 41 148 117 174 202 25 82 25 460 -1 542 -26 86 -71 144 -146 190 -80 48
-152 71 -489 154 -301 74 -332 85 -366 126 -24 28 -25 35 -25 168 0 76 4 150
10 164 5 14 24 35 42 46 31 19 47 20 310 18 l278 -3 27 -28 c27 -26 28 -32 31
-142 l4 -115 160 0 160 0 -4 138 c-5 153 -22 217 -82 295 -33 43 -114 98 -176
119 -52 18 -740 21 -800 4z"/>
<path d="M6500 5420 l0 -960 165 0 164 0 1 366 c0 202 3 370 6 375 3 5 90 9
193 9 213 0 203 3 241 -85 33 -76 250 -532 286 -600 l32 -60 171 -3 c107 -1
171 1 171 7 0 6 -52 117 -116 248 -64 131 -145 298 -180 370 l-63 133 27 6
c15 3 55 17 89 31 105 42 162 130 182 276 14 104 14 492 0 559 -26 122 -92
207 -199 257 l-55 26 -557 3 -558 3 0 -961z m981 671 c63 -24 79 -89 78 -326
-1 -173 -12 -221 -58 -252 -34 -23 -37 -23 -352 -23 l-318 0 -3 273 c-2 149
-2 287 0 304 l3 33 217 3 c260 4 402 0 433 -12z"/>
<path d="M9062 5928 c-139 -12 -245 -86 -287 -200 -17 -44 -20 -78 -20 -208 0
-140 2 -160 23 -205 29 -62 45 -80 107 -120 66 -42 141 -64 413 -119 123 -25
231 -50 240 -55 9 -5 28 -21 41 -35 21 -22 25 -38 29 -109 5 -105 -11 -151
-64 -173 -29 -12 -75 -15 -245 -12 l-209 3 -27 27 c-24 24 -28 37 -33 110 l-5
83 -140 2 c-77 2 -146 -1 -154 -6 -13 -8 -13 -26 -4 -116 19 -181 84 -278 216
-322 43 -13 103 -17 334 -21 309 -4 396 4 471 42 126 64 167 170 160 405 -5
161 -23 216 -95 282 -76 70 -150 94 -488 159 -206 40 -243 54 -261 97 -18 42
-18 154 0 198 8 18 23 38 34 44 13 7 97 11 221 11 196 0 200 0 228 -24 25 -21
28 -31 31 -100 l4 -76 151 0 150 0 -6 93 c-6 106 -34 191 -79 242 -35 41 -133
92 -191 100 -62 8 -461 11 -545 3z"/>
<path d="M15325 5933 c-112 -13 -208 -58 -286 -132 l-59 -57 0 93 0 93 -155 0
-155 0 0 -735 0 -735 155 0 155 0 0 529 0 530 43 34 c96 78 165 97 370 98
l127 0 0 145 0 144 -82 -1 c-46 -1 -96 -4 -113 -6z"/>
<path d="M15978 5930 c-136 -17 -234 -84 -285 -194 l-28 -61 -3 -440 c-2 -307
0 -458 8 -500 31 -155 127 -249 281 -275 92 -14 559 -12 640 4 181 35 278 177
267 390 l-3 59 -147 5 -148 4 0 -61 c0 -34 -6 -77 -14 -96 -25 -59 -49 -65
-281 -65 -306 0 -305 -1 -305 255 l0 155 451 0 451 0 -4 283 c-5 323 -9 342
-85 427 -90 100 -136 111 -468 115 -143 2 -290 0 -327 -5z m502 -253 c19 -7
44 -27 57 -46 21 -31 23 -45 23 -167 l0 -134 -300 0 -300 0 0 131 c0 222 8
228 295 228 121 0 203 -4 225 -12z"/>
<path d="M8180 5195 l0 -735 150 0 150 0 0 735 0 735 -150 0 -150 0 0 -735z"/>
<path d="M13170 5347 c0 -652 1 -658 68 -757 45 -66 116 -112 198 -129 81 -16
287 -14 353 4 75 20 150 60 209 111 28 24 55 44 61 44 7 0 11 -29 11 -80 l0
-80 150 0 150 0 0 735 0 736 -152 -3 -153 -3 -2 -534 c-2 -611 8 -549 -107
-607 -96 -46 -199 -67 -306 -61 -106 6 -134 19 -160 72 -19 40 -20 60 -20 588
l0 547 -150 0 -150 0 0 -583z"/>
<path d="M5409 5574 c-354 -376 -316 -326 -339 -437 -34 -166 -114 -381 -213
-572 -50 -96 -205 -331 -239 -363 l-25 -23 -123 132 -124 131 -95 -99 c-143
-147 -237 -246 -245 -260 -4 -8 33 -58 104 -135 61 -68 116 -130 121 -139 7
-13 -6 -30 -64 -81 -104 -93 -208 -174 -354 -275 -197 -137 -481 -303 -519
-303 -20 0 -295 150 -326 177 -20 18 -31 4 171 222 58 62 107 119 109 125 1 6
-32 52 -75 103 -181 211 -236 273 -242 273 -11 0 -119 -115 -322 -341 -371
-413 -394 -440 -397 -449 -7 -20 327 -263 533 -389 233 -143 515 -291 552
-291 23 0 296 142 448 232 916 547 1500 1206 1755 1978 93 282 148 654 138
934 l-3 89 -226 -239z"/>
<path d="M2103 4872 c-39 -42 -93 -105 -121 -139 l-52 -62 -2 -201 -3 -201
-75 100 c-41 56 -77 101 -82 101 -4 0 -33 -31 -65 -68 -32 -38 -104 -121 -160
-185 -57 -63 -103 -121 -103 -127 0 -39 229 -326 385 -483 80 -81 100 -96 111
-85 6 7 77 86 156 174 78 89 189 212 246 273 l102 110 0 284 0 284 -53 59
c-29 32 -85 98 -126 147 -40 48 -77 89 -81 92 -4 3 -39 -30 -77 -73z"/>

  </g>
  
  <!-- Gold elements -->
  <g transform="translate(0.000000,1090.000000) scale(0.100000,-0.100000)" fill="#d4a853" stroke="none">

<path d="M4970 6731 c0 -5 -40 -50 -90 -101 -49 -51 -90 -99 -90 -107 0 -8 -4
-11 -10 -8 -5 3 -12 -6 -16 -20 -3 -13 -10 -23 -14 -20 -8 5 -187 -175 -335
-335 -43 -47 -127 -135 -187 -196 -59 -61 -105 -114 -101 -117 3 -4 1 -7 -6
-7 -6 0 -28 -17 -49 -39 -20 -21 -73 -76 -117 -122 -44 -46 -168 -176 -275
-287 -107 -112 -196 -208 -198 -213 -12 -32 -39 -6 -466 429 -81 84 -152 152
-157 152 -17 0 -68 -65 -69 -86 0 -11 12 -35 28 -54 15 -18 44 -54 64 -79 38
-47 91 -109 119 -140 8 -9 31 -38 51 -64 19 -25 61 -70 92 -98 31 -29 56 -58
56 -65 0 -7 3 -14 8 -16 6 -3 21 -20 85 -101 12 -15 41 -46 64 -69 24 -22 40
-44 38 -48 -3 -5 9 -17 27 -28 l32 -21 38 42 c21 23 47 51 58 63 11 12 20 24
20 28 0 4 16 22 35 39 19 17 35 36 35 43 0 7 10 20 22 28 12 9 19 16 15 16 -9
0 4 17 63 79 61 64 90 100 90 109 0 5 27 36 60 70 33 34 60 67 60 72 0 6 5 10
10 10 6 0 10 7 10 15 0 8 3 14 8 12 4 -1 8 2 9 6 1 5 11 17 22 26 12 10 21 23
21 29 0 6 9 16 20 22 11 6 20 16 20 23 0 7 9 18 20 25 12 7 18 17 15 22 -3 6
-1 10 4 10 6 0 38 34 71 76 33 42 66 82 73 90 6 7 26 30 42 50 17 20 41 47 54
60 13 13 20 24 16 24 -4 0 11 20 34 45 22 24 41 48 41 53 0 4 23 32 51 62 28
30 66 71 85 91 19 21 34 40 34 44 0 4 14 21 30 37 17 15 30 32 30 36 0 4 23
36 50 72 61 80 61 79 96 112 16 15 43 45 59 68 17 23 37 48 47 57 9 9 14 22
11 30 -4 9 0 11 11 7 9 -3 16 -1 16 6 0 6 7 18 15 26 17 18 20 34 5 34 -5 0
-10 -4 -10 -9z"/>
<path d="M5592 6621 c-12 -10 -19 -20 -17 -23 5 -5 -18 -32 -118 -139 -28 -31
-72 -82 -97 -113 -25 -32 -52 -65 -61 -75 -10 -10 -19 -27 -21 -37 -2 -10 -10
-18 -16 -16 -7 1 -12 -5 -12 -13 0 -8 -11 -22 -25 -31 -14 -9 -23 -20 -20 -24
3 -5 -8 -18 -25 -30 -16 -12 -30 -26 -30 -32 0 -5 -34 -49 -75 -96 -130 -150
-152 -176 -196 -232 -23 -30 -47 -58 -53 -62 -7 -5 -7 -8 -1 -8 5 0 -1 -11
-15 -24 -36 -33 -90 -94 -90 -101 0 -3 -13 -20 -29 -38 -27 -29 -124 -141
-154 -177 -11 -13 -37 -48 -82 -108 -5 -8 -20 -24 -32 -37 -13 -12 -23 -25
-23 -29 0 -4 -17 -24 -37 -45 -21 -21 -56 -60 -78 -86 -22 -26 -47 -54 -55
-63 -8 -8 -15 -21 -16 -29 -2 -8 -22 -34 -46 -57 -24 -23 -56 -59 -72 -81 -17
-22 -36 -44 -43 -48 -7 -4 -13 -13 -13 -19 0 -6 -8 -20 -17 -31 -13 -15 -14
-18 -3 -12 13 8 13 6 1 -8 -7 -9 -18 -14 -24 -10 -6 4 -8 0 -5 -9 4 -9 -3 -21
-15 -29 -33 -21 -98 -91 -91 -98 14 -14 31 -3 66 39 45 55 66 77 104 112 34
31 118 118 230 238 65 71 274 293 374 400 129 138 457 484 549 580 23 25 61
65 83 90 22 25 79 86 127 135 49 50 116 121 149 159 l62 68 0 134 c0 74 -4
134 -8 134 -5 0 -19 -8 -30 -19z"/>
<path d="M17970 5922 c-13 -5 -46 -79 -80 -182 -27 -84 -48 -141 -155 -430
-30 -80 -70 -190 -89 -245 -50 -145 -111 -314 -158 -440 -45 -120 -52 -151
-35 -158 7 -2 39 -3 71 -3 l59 1 42 125 c23 69 56 164 73 212 16 47 29 88 27
90 -2 2 142 2 321 0 301 -2 324 -4 333 -21 13 -23 32 -77 82 -224 46 -137 62
-172 84 -181 30 -11 123 -7 128 7 6 16 -69 229 -124 352 -10 24 -25 66 -76
210 -21 61 -40 112 -43 115 -3 3 -6 13 -8 23 -2 10 -12 39 -24 65 -11 26 -44
115 -73 197 -29 83 -64 179 -79 214 -14 36 -26 68 -26 73 0 17 -63 173 -76
187 -11 12 -146 22 -174 13z m118 -237 c16 -44 42 -113 56 -154 15 -41 30 -79
34 -85 3 -6 7 -15 8 -21 2 -5 32 -96 68 -202 36 -105 66 -194 66 -197 0 -3
-122 -6 -271 -6 l-270 0 6 23 c4 12 25 74 47 137 22 63 55 161 73 217 18 56
47 137 64 180 17 43 40 106 52 141 12 35 25 59 29 55 4 -4 21 -44 38 -88z"/>
<path d="M18917 5924 c-16 -5 -17 -46 -15 -732 l3 -727 53 -3 c31 -2 60 2 68
9 12 10 14 122 14 730 0 678 -1 719 -17 719 -10 0 -34 2 -53 4 -19 3 -43 2
-53 0z"/>
<path d="M17100 4671 c-24 -6 -25 -11 -28 -86 -5 -127 -6 -125 88 -125 97 0
100 4 100 123 0 79 -1 85 -22 91 -29 7 -106 6 -138 -3z"/>
<path d="M3821 4471 c-26 -36 -27 -47 -3 -23 33 34 45 52 34 52 -6 0 -20 -13
-31 -29z"/>

  </g>
</svg>